<?xml version="1.0" ?><svg data-name="Layer 1" id="Layer_1" viewBox="0 0 128 128" xmlns="http://www.w3.org/2000/svg"><title/><path d="M87.5,64c16.1-11.14,27.73-22.44,24.64-27.79-2-3.44-9.14-2.84-18.7.25a4.94,4.94,0,0,0-8.38,3.08c-3,1.22-6.11,2.6-9.31,4.11C74.15,24.13,70.18,8.41,64,8.41S53.85,24.13,52.25,43.65c-17.7-8.37-33.3-12.8-36.39-7.44C14,39.48,17.59,45,24.36,51.29A5.13,5.13,0,0,0,24,53.21a5.3,5.3,0,0,0,5.3,5.31,5.24,5.24,0,0,0,2.7-.76c2.64,2.06,5.49,4.15,8.51,6.24C24.4,75.14,12.77,86.44,15.86,91.79c.93,1.61,3,2.34,5.9,2.34,6.76,0,18.11-3.93,30.49-9.78.31,3.85.72,7.55,1.22,11A5.3,5.3,0,0,0,55.26,105c2.09,8.83,5,14.57,8.74,14.57,6.18,0,10.15-15.73,11.75-35.24,12.38,5.85,23.73,9.78,30.49,9.78,2.91,0,5-.73,5.9-2.34C115.23,86.44,103.6,75.14,87.5,64Zm-2-21.87A5,5,0,0,0,95,40a4.88,4.88,0,0,0-.19-1.27c5.1-1.61,9.1-2.39,11.73-2.39,1.85,0,3,.38,3.45,1.11,1.64,2.86-7,12.85-24.69,25-2.84-1.91-5.79-3.81-8.8-5.66-.1-3.54-.27-7-.5-10.45C79.33,44.75,82.53,43.34,85.49,42.13ZM69,72.68q-2.55,1.47-5,2.82-2.46-1.35-5-2.82t-5-2.93C54,67.88,54,66,54,64s0-3.88.06-5.75q2.4-1.45,5-2.93c1.7-1,3.37-1.91,5-2.81,1.64.9,3.31,1.83,5,2.81s3.35,2,4.95,2.93C74,60.12,74,62,74,64s0,3.88-.06,5.75Q71.56,71.21,69,72.68Zm4.87.07c-.09,2.68-.22,5.24-.38,7.7-2.22-1.09-4.5-2.26-6.86-3.52,1.22-.67,2.43-1.36,3.64-2.06S72.68,73.47,73.88,72.75ZM61.36,76.93q-3.54,1.89-6.86,3.52c-.16-2.46-.29-5-.38-7.7,1.2.72,2.4,1.43,3.6,2.12S60.14,76.26,61.36,76.93Zm-9.88-8.75C49.21,66.77,47.06,65.37,45,64c2.05-1.37,4.2-2.77,6.47-4.18,0,1.39,0,2.79,0,4.18S51.46,66.79,51.48,68.18Zm2.64-12.93q.14-4,.38-7.69c2.22,1.09,4.5,2.25,6.85,3.51-1.21.68-2.42,1.36-3.63,2.06S55.32,54.53,54.12,55.25Zm12.53-4.18c2.35-1.26,4.63-2.42,6.85-3.51q.24,3.69.38,7.69c-1.2-.72-2.4-1.43-3.6-2.12S67.86,51.75,66.65,51.07Zm9.87,8.75C78.79,61.23,80.94,62.63,83,64c-2,1.37-4.2,2.77-6.47,4.18,0-1.39,0-2.79,0-4.18S76.54,61.21,76.52,59.82ZM64,11c3.29,0,7.61,12.51,9.3,33.87-3.07,1.5-6.19,3.11-9.3,4.8-3.11-1.69-6.23-3.3-9.3-4.8C56.39,23.46,60.71,11,64,11Zm-30.17,45a5.28,5.28,0,0,0-7.95-6.76c-6.11-5.74-8.81-10-7.83-11.71.43-.73,1.6-1.11,3.45-1.11,5.31,0,16.19,3.16,30.54,10-.23,3.41-.4,6.91-.5,10.45-3,1.85-6,3.75-8.8,5.66C39.46,60.21,36.48,58,33.83,55.94ZM18.05,90.53c-1.64-2.86,7-12.85,24.69-25,2.84,1.91,5.79,3.81,8.8,5.66.1,3.54.27,7,.5,10.45C32.7,90.86,19.7,93.38,18.05,90.53Zm46,26.52c-1.93,0-4.22-4.31-6.11-12.17a5.3,5.3,0,0,0-1.55-10.37c-.13,0-.26,0-.39,0q-.75-5.16-1.25-11.38c3.07-1.5,6.19-3.1,9.3-4.79,3.11,1.69,6.23,3.29,9.3,4.79C71.61,104.53,67.3,117.05,64,117.05Zm46-26.52c-1.65,2.85-14.65.33-34-8.89.23-3.41.4-6.91.5-10.45,3-1.85,6-3.75,8.8-5.66C102.91,77.68,111.59,87.67,110,90.53Z"/><circle cx="64" cy="64" r="6.09"/></svg>