<svg width="37" height="37" viewBox="0 0 39 39" fill="none" xmlns="http://www.w3.org/2000/svg">
<g clip-path="url(#clip0_45_126)">
<mask id="mask0_45_126" style="mask-type:alpha" maskUnits="userSpaceOnUse" x="6" y="3" width="33" height="36">
<path d="M9.75 3.25C8.88805 3.25 8.0614 3.59241 7.4519 4.2019C6.84241 4.8114 6.5 5.63805 6.5 6.5V32.5C6.5 34.3037 7.94625 35.75 9.75 35.75H19.5V32.5H9.75V6.5H21.125V14.625H29.25V19.5H32.5V13L22.75 3.25M29.25 22.75C29.1507 22.7481 29.0539 22.7813 28.9767 22.8437C28.8994 22.9062 28.8466 22.9938 28.8275 23.0912L28.5187 25.2362C28.0312 25.4475 27.56 25.7075 27.1375 26L25.1225 25.1875C24.9438 25.1875 24.7325 25.1875 24.6187 25.3987L22.9937 28.21C22.8962 28.3888 22.9288 28.6 23.0912 28.73L24.8138 30.0625C24.7489 30.6022 24.7489 31.1478 24.8138 31.6875L23.0912 33.02C23.0182 33.0826 22.9688 33.1683 22.951 33.2628C22.9333 33.3574 22.9484 33.4552 22.9937 33.54L24.6187 36.3512C24.7162 36.5625 24.9275 36.5625 25.1225 36.5625L27.1375 35.75C27.56 36.0425 28.015 36.3187 28.5187 36.5137L28.8275 38.6587C28.86 38.8537 29.0225 39 29.25 39H32.5C32.6787 39 32.8575 38.8537 32.89 38.6587L33.1987 36.5137C33.6863 36.3025 34.125 36.0425 34.5638 35.75L36.5625 36.5625C36.7738 36.5625 36.985 36.5625 37.0987 36.3512L38.7238 33.54C38.7691 33.4552 38.7842 33.3574 38.7665 33.2628C38.7487 33.1683 38.6993 33.0826 38.6263 33.02L36.8875 31.6875C36.92 31.4112 36.9525 31.1512 36.9525 30.875C36.9525 30.5987 36.9363 30.3387 36.8875 30.0625L38.61 28.73C38.683 28.6674 38.7325 28.5817 38.7502 28.4871C38.7679 28.3926 38.7529 28.2948 38.7075 28.21L37.0825 25.3987C36.985 25.1875 36.7738 25.1875 36.5625 25.1875L34.5638 26C34.125 25.7075 33.6863 25.4312 33.1825 25.2362L32.8737 23.0912C32.8635 22.9987 32.8199 22.913 32.7512 22.8502C32.6824 22.7874 32.5931 22.7518 32.5 22.75M30.875 28.4375C32.2237 28.4375 33.3125 29.5262 33.3125 30.875C33.3125 32.2237 32.2237 33.3125 30.875 33.3125C29.51 33.3125 28.4375 32.2237 28.4375 30.875C28.4375 29.5262 29.5263 28.4375 30.875 28.4375Z" fill="white"/>
</mask>
<g mask="url(#mask0_45_126)">
</g>
<path d="M9.75 3.25C8.88805 3.25 8.0614 3.59241 7.4519 4.2019C6.84241 4.8114 6.5 5.63805 6.5 6.5V32.5C6.5 34.3037 7.94625 35.75 9.75 35.75H19.5V32.5H9.75V6.5H21.125V14.625H29.25V19.5H32.5V13L22.75 3.25M29.25 22.75C29.1507 22.7481 29.0539 22.7813 28.9767 22.8437C28.8994 22.9062 28.8466 22.9938 28.8275 23.0912L28.5187 25.2362C28.0312 25.4475 27.56 25.7075 27.1375 26L25.1225 25.1875C24.9438 25.1875 24.7325 25.1875 24.6187 25.3987L22.9937 28.21C22.8962 28.3888 22.9288 28.6 23.0912 28.73L24.8138 30.0625C24.7489 30.6022 24.7489 31.1478 24.8138 31.6875L23.0912 33.02C23.0182 33.0826 22.9688 33.1683 22.951 33.2628C22.9333 33.3574 22.9484 33.4552 22.9937 33.54L24.6187 36.3512C24.7162 36.5625 24.9275 36.5625 25.1225 36.5625L27.1375 35.75C27.56 36.0425 28.015 36.3187 28.5187 36.5137L28.8275 38.6587C28.86 38.8537 29.0225 39 29.25 39H32.5C32.6787 39 32.8575 38.8537 32.89 38.6587L33.1987 36.5137C33.6863 36.3025 34.125 36.0425 34.5638 35.75L36.5625 36.5625C36.7738 36.5625 36.985 36.5625 37.0987 36.3512L38.7238 33.54C38.7691 33.4552 38.7842 33.3574 38.7665 33.2628C38.7487 33.1683 38.6993 33.0826 38.6263 33.02L36.8875 31.6875C36.92 31.4112 36.9525 31.1512 36.9525 30.875C36.9525 30.5987 36.9363 30.3387 36.8875 30.0625L38.61 28.73C38.683 28.6674 38.7325 28.5817 38.7502 28.4871C38.7679 28.3926 38.7529 28.2948 38.7075 28.21L37.0825 25.3987C36.985 25.1875 36.7738 25.1875 36.5625 25.1875L34.5638 26C34.125 25.7075 33.6863 25.4312 33.1825 25.2362L32.8737 23.0912C32.8635 22.9987 32.8199 22.913 32.7512 22.8502C32.6824 22.7874 32.5931 22.7518 32.5 22.75M30.875 28.4375C32.2237 28.4375 33.3125 29.5262 33.3125 30.875C33.3125 32.2237 32.2237 33.3125 30.875 33.3125C29.51 33.3125 28.4375 32.2237 28.4375 30.875C28.4375 29.5262 29.5263 28.4375 30.875 28.4375Z" fill="white"/>
</g>
<defs>
<clipPath id="clip0_45_126">
<rect width="39" height="39" fill="white"/>
</clipPath>
</defs>
</svg>
