<svg width="31" height="31" viewBox="0 0 31 31" fill="none" xmlns="http://www.w3.org/2000/svg">
<path d="M19.25 0C16.2332 0 13.3399 1.19843 11.2067 3.33166C9.07343 5.46489 7.875 8.35816 7.875 11.375C7.875 14.1925 8.9075 16.7825 10.605 18.7775L10.1325 19.25H8.75L0 28L2.625 30.625L11.375 21.875V20.4925L11.8475 20.02C13.9115 21.7818 16.5363 22.7498 19.25 22.75C22.2668 22.75 25.1601 21.5516 27.2933 19.4183C29.4266 17.2851 30.625 14.3918 30.625 11.375C30.625 8.35816 29.4266 5.46489 27.2933 3.33166C25.1601 1.19843 22.2668 0 19.25 0ZM19.25 3.5C23.625 3.5 27.125 7 27.125 11.375C27.125 15.75 23.625 19.25 19.25 19.25C14.875 19.25 11.375 15.75 11.375 11.375C11.375 7 14.875 3.5 19.25 3.5Z" fill="white"/>
</svg>
