<svg width="37" height="37" viewBox="0 0 46 46" fill="none" xmlns="http://www.w3.org/2000/svg">
<path d="M23.0001 7.66667C25.0334 7.66667 26.9835 8.4744 28.4212 9.91218C29.859 11.35 30.6667 13.3 30.6667 15.3333C30.6667 17.3667 29.859 19.3167 28.4212 20.7545C26.9835 22.1923 25.0334 23 23.0001 23C20.9668 23 19.0167 22.1923 17.5789 20.7545C16.1411 19.3167 15.3334 17.3667 15.3334 15.3333C15.3334 13.3 16.1411 11.35 17.5789 9.91218C19.0167 8.4744 20.9668 7.66667 23.0001 7.66667ZM23.0001 26.8333C31.4717 26.8333 38.3334 30.2642 38.3334 34.5V38.3333H7.66675V34.5C7.66675 30.2642 14.5284 26.8333 23.0001 26.8333Z" fill="white"/>
</svg>
